<svg width="113" height="79" viewBox="0 0 113 79" fill="none" xmlns="http://www.w3.org/2000/svg">
<path d="M11.6503 5.19588C11.6503 5.2338 11.6503 5.2338 11.6122 5.27173L8.41408 5.49929C8.26179 5.49929 8.18565 5.57514 8.18565 5.65099L8.9471 15.0946C8.9471 15.0946 8.90903 15.1325 8.87096 15.1704L4.7591 15.5497C4.7591 15.5497 4.72102 15.5118 4.72102 15.4738L4.03571 5.9544C4.03571 5.87855 3.95957 5.8027 3.76921 5.84062L0.228437 6.06818C0.190364 6.06818 0.190364 6.03025 0.190364 5.99233L0 3.48921C0 3.45128 0 3.41335 0.0380728 3.41335L11.4218 2.57898C11.4599 2.57898 11.4599 2.61691 11.498 2.65483L11.6503 5.19588Z" fill="#112558"/>
<path d="M23.6052 9.55737C23.6433 10.0125 23.6814 10.9606 23.6814 12.4398C23.7194 13.9947 23.7194 14.8291 23.6814 14.867L20.2548 14.9429C20.2167 14.9049 20.2167 14.9049 20.2167 14.867C20.0264 11.7192 19.9502 10.0504 19.9122 9.82285C19.7979 8.38166 19.2649 7.69899 18.275 7.77484C17.3613 7.8507 16.7902 8.15411 16.5237 8.723V8.76092L17.0186 14.9429C17.0186 14.9808 17.0186 15.0187 16.9805 15.0187L13.4398 15.3221C13.4398 15.3221 13.4017 15.2842 13.4017 15.2463L12.2595 0.265482C12.2595 0.227556 12.2595 0.18963 12.2595 0.18963L15.7622 0C15.8003 0.0379261 15.9907 2.01008 16.2952 5.95439C16.2952 6.03024 16.3714 6.1061 16.5237 6.06817C16.5617 6.06817 16.714 5.95439 16.9425 5.80269C17.209 5.57513 17.5136 5.42343 17.7801 5.27172C18.1989 5.08209 18.6557 4.96832 19.1507 4.93039C20.7498 4.81661 21.93 5.34758 22.6915 6.52328C23.1864 7.31973 23.491 8.30581 23.6052 9.55737Z" fill="#112558"/>
<path d="M33.5801 13.1224C33.542 13.2741 33.1994 13.4258 32.4379 13.5775C31.8287 13.6913 31.3719 13.7672 31.0292 13.8051C28.9733 13.9568 27.3361 13.5775 26.1559 12.6673C25.0899 11.8709 24.5188 10.771 24.4426 9.40567C24.3665 8.11619 24.5568 6.90255 25.0899 5.8027C25.8132 4.24773 27.0316 3.41336 28.6687 3.29958C31.4099 3.10995 32.8567 4.43736 33.0851 7.28181C33.1232 7.5473 33.0851 7.96448 32.9709 8.49545C32.8567 9.14019 32.7044 9.48153 32.514 9.5953L27.7169 9.78493C27.5646 9.78493 27.4884 9.86079 27.4884 9.97456C27.4884 10.1263 27.6027 10.3538 27.793 10.6572C28.288 11.5295 29.2398 11.9088 30.5723 11.795C31.2957 11.7571 32.2095 11.5295 33.2374 11.1123C33.2755 11.1503 33.3516 11.4537 33.4278 12.0605C33.5039 12.5915 33.542 12.9707 33.5801 13.1224ZM30.6865 7.24389C30.6104 6.37159 30.1155 5.9544 29.2017 6.03025C28.5164 6.06818 27.9834 6.40951 27.6407 7.05426C27.3742 7.50937 27.2981 8.00241 27.3361 8.53337C27.3361 8.64715 27.4123 8.68508 27.6027 8.68508L30.3058 8.4196C30.6104 8.34374 30.7246 7.96448 30.6865 7.24389Z" fill="#112558"/>
<path d="M31.4862 27.193C31.5243 27.2688 31.1436 29.5065 27.8693 34.0197C25.7753 31.6303 23.1102 30.4167 20.8258 30.4167C19.3791 30.4167 18.6938 31.0994 18.7699 32.3509C18.808 33.1853 19.9502 34.1714 22.1584 35.2712C25.1281 36.7504 26.9175 37.964 27.8312 38.9501C29.6207 40.9601 30.0775 43.3874 29.5445 46.6491C28.6308 52.338 26.3083 58.4061 19.6075 58.4061C17.9323 58.4061 16.219 57.7235 14.5438 56.4719C12.9448 55.2583 11.6884 53.8171 10.7366 52.1104C10.6985 52.0725 10.6985 51.9966 10.6985 51.9208C10.6985 51.8449 12.031 49.3418 15.0769 44.601C16.0667 45.3596 16.9805 46.1939 17.8562 46.9145C18.8841 47.7489 20.0263 48.1661 20.9781 48.1282C22.3868 48.0523 23.1864 47.2559 23.4148 45.7768C23.5671 44.7527 22.6533 43.8046 20.5974 42.9702C17.78 41.7945 15.686 40.7705 14.5438 39.7844C12.2595 37.8502 11.0031 35.0816 11.0031 31.4786C11.0031 28.71 12.2214 26.2069 14.1631 24.0072C16.1048 21.8454 17.9704 20.7835 20.3309 20.7835C22.0822 20.7835 23.9859 21.3903 26.156 22.6419C28.212 23.8176 30.0395 25.2967 31.4482 27.0413C31.4482 27.0413 31.4862 27.1171 31.4862 27.193Z" fill="#112558"/>
<path d="M49.9134 20.8214C55.1674 33.1095 47.8575 42.4772 48.6951 55.0307C48.7331 55.1445 48.7331 55.2204 48.6951 55.2962C46.4107 55.4479 45.2304 55.4858 42.9461 55.6755C42.2988 51.5415 42.7938 47.3697 43.8979 43.3495C43.974 43.084 43.8979 42.9702 43.6694 42.9702C41.6516 42.9323 40.6617 42.9323 38.5677 42.9323C38.3773 42.9323 38.2631 43.0461 38.187 43.3116C37.0829 47.2938 36.8925 50.9726 36.8925 55.0687C36.8925 55.1445 36.8544 55.2204 36.7783 55.3341C34.4939 55.5238 33.3517 55.5996 31.0674 55.7893C31.0293 55.7513 30.9912 55.6755 30.9912 55.5617C31.3719 43.1219 36.093 32.8819 31.2958 20.7456C31.2577 20.6697 31.2577 20.5939 31.2577 20.518C33.7325 20.5559 34.9889 20.5559 37.5017 20.5559C37.6159 20.6318 37.692 20.7456 37.7301 20.7835C39.9002 25.676 41.4993 30.1892 40.2429 35.5747C40.2048 35.8022 40.281 35.9539 40.5094 35.9539C42.6034 35.9918 43.6314 36.0298 45.6492 36.0677C45.8777 36.0677 46.03 35.9539 46.068 35.7264C46.068 35.8022 46.563 34.4748 46.6391 31.5545C46.7153 28.748 46.1442 26.4345 45.4969 24.6519C44.5451 22.073 43.5172 20.5939 43.4791 20.518C45.9538 20.5559 47.2102 20.5559 49.723 20.5939C49.7992 20.6318 49.8372 20.7076 49.9134 20.8214Z" fill="#112558"/>
<path d="M70.6631 57.7235C70.7012 57.7993 70.7012 57.8752 70.7012 57.951C68.1503 57.8752 66.8939 57.8372 64.343 57.7614C64.3049 57.7235 62.3251 54.8032 61.6398 50.0624C61.6018 49.8348 61.4875 49.7211 61.2972 49.7211C59.3555 49.6452 58.4036 49.6452 56.4619 49.5694C56.2716 49.5694 56.1573 49.6831 56.1573 49.9107C55.967 51.9587 56.0051 54.1584 56.5 56.6615C54.0253 56.6615 52.7689 56.6615 50.2941 56.6995C50.218 56.5857 50.1799 56.4719 50.1418 56.3202C50.1799 43.4633 59.0509 34.2852 56.4239 21.2765C60.3073 21.2765 62.2871 21.2765 66.1705 21.3144C66.2466 21.3903 66.2847 21.4662 66.3228 21.542C70.8915 34.3231 64.4572 45.7009 70.9296 58.1407C70.9296 58.1407 70.9296 58.1407 70.9296 58.1786C70.8154 57.9889 70.7392 57.8372 70.6631 57.7235ZM61.8302 42.2117V42.1738C62.7059 38.457 63.7719 34.3231 63.4673 30.4926C63.4673 30.265 63.3531 30.1512 63.2008 30.1512C63.0105 30.1512 62.9343 30.265 62.8962 30.4926C61.7921 34.7403 60.3073 38.1157 58.4417 42.0979C58.3656 42.3634 58.4036 42.4772 58.594 42.4772C59.7362 42.5151 60.3073 42.553 61.4495 42.591C61.6018 42.591 61.716 42.4772 61.8302 42.2117Z" fill="#112558"/>
<path d="M91.8696 23.7038C89.5853 29.5444 85.245 35.1195 83.0748 39.8224C83.0368 39.8982 83.0748 40.4671 83.2271 41.4911C83.7221 47.0662 88.4431 52.5655 90.0422 56.3581C90.0802 56.3961 90.0421 56.5098 90.0041 56.5478C87.2248 56.7374 85.8541 56.8133 83.151 57.0029C83.1129 56.965 83.0368 56.927 82.9987 56.8891C80.1432 52.831 77.6685 48.9626 77.1736 43.8805C77.1736 43.7288 77.0974 43.6529 76.9451 43.6529C76.4502 43.6529 76.1456 43.8046 76.0694 44.0701C75.308 47.3697 75.4984 51.9208 76.9451 55.0686C74.5085 55.2962 73.2901 55.41 70.8535 55.6755C70.7773 55.6375 70.7393 55.5617 70.6631 55.4479C67.6554 43.9184 74.28 34.2093 72.6429 22.4902C72.6048 22.4143 72.6429 22.3384 72.6429 22.2626C75.308 22.2626 76.6405 22.2626 79.3056 22.2247C79.3437 22.3005 79.3818 22.3764 79.4198 22.4522C79.9529 27.5722 79.7244 31.8958 78.1254 36.8262C78.0492 37.0538 78.1254 37.2055 78.3919 37.2055C78.5061 37.2055 78.6203 37.1296 78.7345 36.9779C81.8184 32.5785 83.7221 28.1032 85.0927 22.9453C87.7578 23.059 89.0523 23.097 91.7174 23.2107C91.7554 23.2866 91.7935 23.3625 91.7935 23.4383C91.8696 23.59 91.8696 23.6659 91.8696 23.7038Z" fill="#112558"/>
<path d="M113 23.2487C112.543 29.3927 108.127 37.5468 105.195 44.4873C104.51 46.1181 104.281 46.9146 104.281 46.9525C104.548 50.8968 104.776 52.9069 105.614 57.0408C105.614 57.1167 105.614 57.1546 105.576 57.2304C102.873 57.3063 101.54 57.3442 98.8751 57.4201C97.5806 54.0446 97.1237 50.5934 96.7049 47.0283C96.7049 47.0283 96.3242 46.2319 95.9816 44.6011C94.7252 37.6227 93.2784 29.4686 92.7834 23.5521C92.7834 23.4762 92.8215 23.4004 92.8596 23.3245C95.4485 23.3625 96.743 23.3625 99.37 23.4004C99.4081 23.4004 99.4462 23.4383 99.4462 23.5142C100.093 28.5204 100.284 33.5266 100.855 38.5329C100.855 38.7225 100.969 38.7984 101.159 38.7984C101.388 38.7984 101.502 38.6846 101.578 38.495C103.368 33.4887 105.081 28.4446 106.261 23.2487C108.926 23.1728 110.259 23.1349 112.924 23.0591C113 23.1349 113 23.2108 113 23.2487Z" fill="#112558"/>
<path d="M14.9627 74.4489C14.9627 74.4868 14.9627 74.4868 14.9246 74.5247H4.53074C4.45459 74.4868 4.45459 70.277 4.45459 61.8574C4.45459 61.8195 4.45459 61.7816 4.49266 61.7816H14.9246C14.9627 61.8195 14.9627 61.8195 14.9627 61.8574V64.3985C14.9627 64.4364 14.9627 64.4364 14.9246 64.4743H8.87103C8.71874 64.4743 8.64259 64.5122 8.64259 64.5881V66.7499C8.64259 66.8257 8.71874 66.8637 8.87103 66.8637H13.6682C13.7063 66.9016 13.7063 66.9016 13.7063 66.9395V69.4805C13.7063 69.4805 13.7063 69.5185 13.6682 69.5564H8.83296C8.68067 69.5564 8.60452 69.5943 8.60452 69.7081L8.56645 71.6803C8.56645 71.7561 8.64259 71.832 8.79489 71.832H14.8865C14.9246 71.8699 14.9246 71.8699 14.9246 71.9078V74.4489H14.9627Z" fill="#112558"/>
<path d="M27.4125 74.3351C27.4125 74.373 27.4125 74.373 27.3744 74.4109L23.6814 74.4868C23.6433 74.4868 22.9961 73.7662 21.7777 72.325C21.7397 72.2492 21.6635 72.2492 21.5874 72.2492C21.5112 72.2492 21.4351 72.2871 21.397 72.325C20.8259 73.0077 20.2168 73.7283 19.5695 74.4868L15.8384 74.4109C15.8384 74.4109 15.8384 74.373 15.8384 74.3351V74.2592C18.3512 71.2631 19.5695 69.746 19.5695 69.7081C19.5695 69.6702 18.3131 68.1911 15.8384 65.2328C15.8384 65.2328 15.8384 65.1949 15.8384 65.157C15.8384 65.1191 15.8384 65.0811 15.8384 65.0811H19.798L21.3589 67.0154C21.397 67.0912 21.4732 67.1291 21.5493 67.1291C21.6254 67.1291 21.7016 67.0912 21.7397 67.0154L23.4149 65.0432H27.3364C27.3744 65.0432 27.3744 65.0811 27.3744 65.1191C27.3744 65.1949 26.7653 65.9534 25.5089 67.3946C24.2525 68.8358 23.6433 69.5943 23.6433 69.6702C23.6433 69.784 24.2525 70.5425 25.5089 71.9837C26.7653 73.4249 27.4125 74.2592 27.4125 74.3351Z" fill="#112558"/>
<path d="M39.5577 69.5185C39.5577 70.6563 39.1769 71.6423 38.4155 72.4767C37.5017 73.5007 36.2073 73.9938 34.5701 73.9938C33.8848 73.9938 33.2757 73.88 32.7046 73.6524C32.6665 73.6524 32.6284 73.6524 32.5523 73.6524C32.4 73.6524 32.3238 73.6903 32.3238 73.8041L32.3619 78.9241C32.3619 78.9621 32.3619 79 32.3238 79L29.0115 78.9241C28.9734 78.8862 28.9734 78.8862 28.9734 78.8483L28.4023 64.5881C28.4023 64.5502 28.4023 64.5122 28.4404 64.5122L32.2477 64.4743C32.2858 64.5122 32.2858 64.6639 32.2858 64.9673C32.2858 65.0432 32.3619 65.119 32.5142 65.119C32.5523 65.119 32.7046 65.119 32.9711 65.0811C33.2376 65.0432 33.428 65.0432 33.6183 65.0432C34.5321 65.0432 35.3697 65.157 36.1311 65.4225C37.2733 65.8017 38.187 66.4085 38.7962 67.205C39.2912 67.7739 39.5577 68.6082 39.5577 69.5185ZM35.4077 70.0494C35.4077 69.4805 35.1412 69.0254 34.6463 68.6841C34.1513 68.3428 33.4279 68.1911 32.5142 68.1911C32.3619 68.1911 32.2858 68.229 32.2858 68.3428V71.4148C32.2858 71.6044 32.6665 71.6803 33.466 71.6803C34.7605 71.6423 35.4077 71.1114 35.4077 70.0494Z" fill="#112558"/>
<path d="M49.1901 74.7144C49.152 74.8661 48.7713 74.9798 48.0479 75.0936C47.4387 75.1695 46.9818 75.2074 46.6011 75.2074C44.5452 75.2074 42.9461 74.7144 41.8039 73.7283C40.814 72.856 40.3191 71.7182 40.3191 70.3529C40.3191 69.0634 40.6237 67.8877 41.2328 66.7878C42.0704 65.3087 43.3268 64.5502 44.964 64.5502C47.7052 64.5502 49.0758 65.9914 49.0758 68.8737C49.0758 69.1392 48.9997 69.5564 48.8855 70.0495C48.7332 70.6563 48.5428 71.0355 48.3525 71.1114L43.5553 70.9597C43.403 70.9597 43.3268 70.9976 43.3268 71.1114C43.3268 71.2631 43.403 71.4906 43.5553 71.7941C44.0122 72.6664 44.8878 73.1215 46.2584 73.1215C46.9818 73.1215 47.8956 72.9698 48.9616 72.6284C48.9997 72.6664 49.0378 72.9698 49.0758 73.5766C49.1901 74.1834 49.1901 74.5627 49.1901 74.7144ZM46.7534 68.6462C46.7534 67.7739 46.2965 67.3188 45.3828 67.3188C44.6975 67.3188 44.1644 67.6222 43.7837 68.229C43.4791 68.6841 43.3649 69.1772 43.3649 69.6702C43.3649 69.784 43.4411 69.8219 43.5934 69.8219L46.2965 69.746C46.6011 69.746 46.7534 69.3668 46.7534 68.6462Z" fill="#112558"/>
<path d="M58.0991 67.3946C58.0991 67.4326 58.0991 67.4705 58.061 67.5084C57.4138 67.5084 56.6523 67.6222 55.8528 67.8118C54.7487 68.0773 54.1776 68.4566 54.1015 68.9117C54.1395 68.9117 54.1776 68.9875 54.2157 69.1013C54.2918 69.3289 54.3299 69.5943 54.368 69.9357C54.4441 70.6563 54.4822 71.7941 54.4822 73.3869C54.4822 74.2213 54.4441 74.6385 54.406 74.6764L50.9033 74.7523C50.8653 74.7144 50.8272 74.7144 50.8272 74.6764L50.2561 64.3226C50.2561 64.2847 50.2561 64.2468 50.2942 64.2468H53.7588C53.7969 64.2468 53.8349 64.5123 53.873 64.9674C53.873 65.2328 53.873 65.4983 53.873 65.8017C53.873 65.8776 53.9492 65.9534 54.1015 65.9534C54.1395 65.9534 54.3299 65.8397 54.6726 65.65C55.0914 65.4225 55.4721 65.2328 55.8147 65.0811C56.3858 64.8915 56.9188 64.7777 57.4899 64.7777C57.8707 64.7777 58.023 64.8157 58.023 64.8915C58.061 66.4465 58.0991 67.2809 58.0991 67.3946Z" fill="#112558"/>
<path d="M63.5817 64.4364C63.5817 64.8915 63.3913 65.2708 62.9725 65.65C62.5156 66.0293 61.9826 66.2189 61.2973 66.2189C60.612 66.2189 60.0409 66.0293 59.584 65.6121C59.1652 65.2708 58.9749 64.8536 58.9749 64.3985C58.9749 63.9433 59.1652 63.5641 59.584 63.1848C60.0409 62.8056 60.5739 62.6159 61.2592 62.6159C61.9445 62.6159 62.5537 62.8056 62.9725 63.1848C63.3913 63.5641 63.5817 63.9813 63.5817 64.4364ZM63.2771 67.5842L63.0106 75.2832C63.0106 75.2832 63.0106 75.3212 63.0106 75.3591H59.3937C59.3556 75.3212 59.3556 75.3212 59.3556 75.2832C59.3937 72.7043 59.4317 70.0874 59.5079 67.4705H59.5459L63.239 67.5084C63.2771 67.5463 63.2771 67.5842 63.2771 67.5842Z" fill="#112558"/>
<path d="M73.3282 74.7144C73.2902 74.8661 72.9094 74.9798 72.186 75.0936C71.5769 75.1695 71.12 75.2074 70.7393 75.2074C68.6834 75.2074 67.0843 74.7144 65.9421 73.7283C64.9522 72.856 64.4573 71.7182 64.4573 70.3529C64.4573 69.0634 64.7619 67.8877 65.371 66.7878C66.2086 65.3087 67.465 64.5502 69.1022 64.5502C71.8434 64.5502 73.214 65.9914 73.214 68.8737C73.214 69.1392 73.1379 69.5564 73.0236 70.0495C72.8714 70.6563 72.681 71.0355 72.4906 71.1114L67.6935 70.9597C67.5412 70.9597 67.465 70.9976 67.465 71.1114C67.465 71.2631 67.5412 71.4906 67.6935 71.7941C68.1503 72.6664 69.026 73.1215 70.3966 73.1215C71.12 73.1215 72.0338 72.9698 73.0998 72.6284C73.1379 72.6664 73.1759 72.9698 73.214 73.5766C73.3282 74.1834 73.3282 74.5627 73.3282 74.7144ZM70.8916 68.6462C70.8916 67.7739 70.4347 67.3188 69.521 67.3188C68.8356 67.3188 68.3026 67.6222 67.9219 68.229C67.6173 68.6841 67.5031 69.1772 67.5031 69.6702C67.5031 69.784 67.5792 69.8219 67.7315 69.8219L70.4347 69.746C70.7393 69.746 70.8916 69.3668 70.8916 68.6462Z" fill="#112558"/>
<path d="M85.245 69.5943C85.245 70.2011 85.1689 71.8699 85.0166 74.5626C85.0166 74.6006 84.9785 74.6385 84.9405 74.6764L81.5139 74.5247C81.5139 74.5247 81.5139 74.4868 81.5139 74.4489C81.552 72.1733 81.5901 70.5804 81.5901 69.5943C81.5901 68.1531 81.0951 67.4325 80.1052 67.4325C79.0392 67.4325 78.3158 67.8118 78.0112 68.6082V68.6462L78.0874 74.1834C78.0874 74.2213 78.0874 74.2592 78.0874 74.2592L74.5466 74.2972C74.5085 74.2592 74.5085 74.2592 74.5085 74.2213L74.4705 64.8156C74.4705 64.7777 74.4705 64.7777 74.5085 64.7398H77.9731C78.0112 64.7777 78.0493 64.8156 78.0493 64.9294C78.0493 64.9673 78.0493 65.0811 78.0112 65.1949C77.9731 65.3087 77.9731 65.4224 77.9731 65.4604C77.9731 65.65 78.0493 65.7259 78.2397 65.7259C78.2777 65.7259 78.4681 65.65 78.6965 65.4224C79.0011 65.1949 79.3057 65.0053 79.6103 64.8915C80.0671 64.7019 80.6002 64.5881 81.1332 64.5881C83.8744 64.6639 85.245 66.3327 85.245 69.5943Z" fill="#112558"/>
<path d="M94.2682 72.6284L94.154 74.7523C94.154 74.904 93.621 74.9798 92.593 74.9798C90.6894 74.9798 89.1665 74.5626 87.9862 73.7662C86.844 72.9697 86.2729 71.9837 86.2729 70.77C86.2729 69.3668 86.6917 68.229 87.5293 67.3188C88.5573 66.181 90.0802 65.6121 92.0981 65.6121C92.4027 65.6121 92.7453 65.65 93.2022 65.6879C93.7733 65.7638 94.0779 65.8396 94.0779 65.9534V69.0634C94.0779 69.0634 94.0779 69.1013 94.0398 69.1392C93.9256 69.1392 93.7352 69.1013 93.4687 69.1013C93.2022 69.1013 93.0118 69.0634 92.8976 69.0634C90.9178 69.0634 89.8899 69.7081 89.8899 70.9976C89.8899 72.1354 90.8798 72.7043 92.8215 72.7043C92.9738 72.7043 93.2022 72.7043 93.5448 72.6663C93.8875 72.6284 94.1159 72.6284 94.2682 72.6284C94.2682 72.5905 94.2302 72.5526 94.2682 72.6284Z" fill="#112558"/>
<path d="M103.977 74.7144C103.939 74.8661 103.558 74.9798 102.835 75.0936C102.226 75.1695 101.769 75.2074 101.388 75.2074C99.332 75.2074 97.733 74.7144 96.5908 73.7283C95.6009 72.856 95.106 71.7182 95.106 70.3529C95.106 69.0634 95.4105 67.8877 96.0197 66.7878C96.8573 65.3087 98.1137 64.5502 99.7508 64.5502C102.492 64.5502 103.863 65.9914 103.863 68.8737C103.863 69.1392 103.787 69.5564 103.672 70.0495C103.52 70.6563 103.33 71.0355 103.139 71.1114L98.3421 70.9597C98.1898 70.9597 98.1137 70.9976 98.1137 71.1114C98.1137 71.2631 98.1898 71.4906 98.3421 71.7941C98.799 72.6664 99.6747 73.1215 101.045 73.1215C101.769 73.1215 102.682 72.9698 103.748 72.6284C103.787 72.6664 103.825 72.9698 103.863 73.5766C103.977 74.1834 103.977 74.5627 103.977 74.7144ZM101.54 68.6462C101.54 67.7739 101.083 67.3188 100.17 67.3188C99.4843 67.3188 98.9513 67.6222 98.5706 68.229C98.266 68.6841 98.1518 69.1772 98.1518 69.6702C98.1518 69.784 98.2279 69.8219 98.3802 69.8219L101.083 69.746C101.388 69.746 101.54 69.3668 101.54 68.6462Z" fill="#112558"/>
</svg>
